<mxfile host="app.diagrams.net" modified="2020-12-17T02:11:31.641Z" agent="5.0 (Macintosh; Intel Mac OS X 10_15_6) AppleWebKit/537.36 (KHTML, like Gecko) Chrome/87.0.4280.88 Safari/537.36" etag="qYSRQnSTROUIRa-Uf0Mh" version="14.0.4" type="github">
  <diagram id="s80pH2GnnMX6pbSVh5So" name="Page-1">
    <mxGraphModel dx="1426" dy="803" grid="1" gridSize="10" guides="1" tooltips="1" connect="1" arrows="1" fold="1" page="1" pageScale="1" pageWidth="827" pageHeight="1169" math="0" shadow="0">
      <root>
        <mxCell id="0" />
        <mxCell id="1" parent="0" />
        <mxCell id="3ZbYRFyk5D7tgO6IIjx2-1" value="Avatar中台" style="rounded=0;whiteSpace=wrap;html=1;" vertex="1" parent="1">
          <mxGeometry x="280" y="270" width="380" height="70" as="geometry" />
        </mxCell>
        <mxCell id="3ZbYRFyk5D7tgO6IIjx2-2" value="用户模型存储" style="rounded=0;whiteSpace=wrap;html=1;" vertex="1" parent="1">
          <mxGeometry x="280" y="350" width="120" height="60" as="geometry" />
        </mxCell>
        <mxCell id="3ZbYRFyk5D7tgO6IIjx2-3" value="用户模型查询" style="rounded=0;whiteSpace=wrap;html=1;" vertex="1" parent="1">
          <mxGeometry x="410" y="350" width="120" height="60" as="geometry" />
        </mxCell>
        <mxCell id="3ZbYRFyk5D7tgO6IIjx2-4" value="商品赋权" style="rounded=0;whiteSpace=wrap;html=1;" vertex="1" parent="1">
          <mxGeometry x="540" y="350" width="120" height="60" as="geometry" />
        </mxCell>
        <mxCell id="3ZbYRFyk5D7tgO6IIjx2-5" value="配置管理" style="rounded=0;whiteSpace=wrap;html=1;" vertex="1" parent="1">
          <mxGeometry x="540" y="430" width="120" height="60" as="geometry" />
        </mxCell>
        <mxCell id="3ZbYRFyk5D7tgO6IIjx2-6" value="用户背包" style="rounded=0;whiteSpace=wrap;html=1;" vertex="1" parent="1">
          <mxGeometry x="410" y="430" width="120" height="60" as="geometry" />
        </mxCell>
        <mxCell id="3ZbYRFyk5D7tgO6IIjx2-7" value="赋权校验" style="rounded=0;whiteSpace=wrap;html=1;" vertex="1" parent="1">
          <mxGeometry x="280" y="430" width="120" height="60" as="geometry" />
        </mxCell>
        <mxCell id="3ZbYRFyk5D7tgO6IIjx2-8" value="TIDB" style="rounded=0;whiteSpace=wrap;html=1;" vertex="1" parent="1">
          <mxGeometry x="280" y="558" width="120" height="60" as="geometry" />
        </mxCell>
        <mxCell id="3ZbYRFyk5D7tgO6IIjx2-9" value="MongoDB" style="rounded=0;whiteSpace=wrap;html=1;" vertex="1" parent="1">
          <mxGeometry x="410" y="558" width="120" height="60" as="geometry" />
        </mxCell>
        <mxCell id="3ZbYRFyk5D7tgO6IIjx2-10" value="Redis" style="rounded=0;whiteSpace=wrap;html=1;" vertex="1" parent="1">
          <mxGeometry x="540" y="558" width="120" height="60" as="geometry" />
        </mxCell>
      </root>
    </mxGraphModel>
  </diagram>
</mxfile>
